<?xml version="1.0" standalone="no"?>
<!DOCTYPE svg PUBLIC "-//W3C//DTD SVG 20010904//EN"
 "http://www.w3.org/TR/2001/REC-SVG-20010904/DTD/svg10.dtd">
<svg version="1.0" xmlns="http://www.w3.org/2000/svg"
 width="1600.000000pt" height="1600.000000pt" viewBox="0 0 1600.000000 1600.000000"
 preserveAspectRatio="xMidYMid meet">

<g transform="translate(0.000000,1600.000000) scale(0.100000,-0.100000)"
fill="#000000" stroke="none">
<path d="M7485 15494 c-771 -40 -1377 -151 -2045 -375 -802 -268 -1604 -711
-2260 -1248 -979 -800 -1726 -1825 -2185 -2997 -386 -984 -551 -2075 -474
-3139 91 -1271 509 -2478 1223 -3535 699 -1034 1654 -1874 2764 -2429 856
-428 1699 -663 2682 -747 268 -23 851 -23 1120 -1 977 84 1824 320 2675 744
1605 802 2866 2183 3520 3858 357 913 529 1937 486 2898 -47 1078 -288 2020
-758 2962 -803 1607 -2178 2862 -3860 3521 -661 259 -1372 419 -2108 474 -147
11 -661 20 -780 14z m660 -504 c792 -49 1537 -224 2244 -527 1482 -634 2686
-1769 3405 -3210 380 -762 598 -1532 683 -2408 22 -227 25 -904 5 -1125 -63
-703 -201 -1304 -445 -1930 -73 -187 -143 -342 -258 -570 -476 -947 -1161
-1759 -2019 -2397 -728 -541 -1595 -944 -2471 -1147 -733 -170 -1494 -217
-2249 -140 -1841 188 -3552 1159 -4681 2656 -1032 1370 -1498 3044 -1324 4763
187 1843 1151 3544 2655 4684 1049 796 2316 1266 3636 1350 188 12 634 12 819
1z"/>
<path d="M7460 13990 c-1835 -100 -3502 -1052 -4505 -2570 -577 -874 -908
-1904 -944 -2940 -24 -717 70 -1390 288 -2049 268 -807 741 -1588 1310 -2163
116 -116 131 -128 184 -143 159 -45 317 75 317 241 0 74 -29 122 -152 252
-375 396 -666 810 -904 1283 -886 1771 -695 3913 491 5494 218 291 556 650
814 864 780 650 1679 1051 2666 1190 277 39 384 46 735 46 348 -1 434 -6 727
-46 141 -19 156 -20 205 -5 213 62 241 356 45 458 -42 21 -292 58 -518 77
-181 15 -579 21 -759 11z"/>
<path d="M9590 13638 c-50 -17 -133 -104 -148 -154 -29 -100 2 -215 74 -270
18 -14 100 -53 181 -86 81 -33 221 -94 311 -135 161 -74 165 -75 231 -71 131
7 221 95 229 224 11 171 -58 224 -558 432 -167 69 -247 84 -320 60z"/>
<path d="M11070 12821 c-114 -37 -174 -119 -174 -236 0 -115 15 -135 239 -320
255 -211 603 -581 820 -870 1051 -1404 1329 -3252 739 -4912 -246 -691 -632
-1316 -1152 -1865 -151 -159 -174 -213 -138 -330 19 -64 57 -110 118 -143 43
-24 65 -29 118 -29 90 0 127 22 253 151 579 594 1036 1349 1307 2161 105 315
194 696 239 1022 41 297 46 387 46 800 0 484 -19 702 -96 1100 -206 1064 -724
2075 -1454 2839 -228 239 -566 544 -673 608 -46 27 -145 40 -192 24z"/>
<path d="M6935 11490 c-16 -5 -49 -22 -72 -37 -48 -32 -2560 -3040 -2590
-3102 -23 -48 -23 -154 0 -202 10 -20 589 -722 1288 -1560 1108 -1330 1276
-1528 1322 -1554 l52 -30 815 0 c908 0 840 -5 918 69 75 70 99 184 58 274 -12
25 -381 460 -931 1095 l-912 1052 1966 5 1966 5 54 30 c58 32 103 90 121 155
13 47 13 1073 0 1120 -18 65 -63 123 -121 155 l-54 30 -1966 5 -1966 5 912
1052 c550 635 919 1070 931 1095 24 54 24 150 0 198 -25 48 -73 98 -121 123
-40 22 -41 22 -840 24 -442 1 -813 -3 -830 -7z m1004 -507 c-8 -9 -414 -479
-903 -1043 -489 -564 -900 -1043 -915 -1064 -20 -31 -27 -54 -29 -111 -5 -86
19 -145 78 -199 79 -71 -85 -66 2237 -66 l2093 0 0 -250 0 -250 -2093 0
c-2341 0 -2159 6 -2242 -71 -58 -54 -78 -108 -73 -197 3 -54 9 -78 29 -108 15
-21 426 -500 915 -1064 489 -564 895 -1034 903 -1043 13 -16 -12 -17 -405 -17
l-419 0 -1140 1368 c-626 752 -1139 1374 -1139 1382 0 8 513 630 1139 1383
l1140 1367 419 0 c393 0 418 -1 405 -17z"/>
<path d="M5223 4134 c-70 -25 -111 -79 -258 -335 -137 -239 -140 -245 -143
-312 -5 -88 15 -143 73 -196 53 -49 135 -76 198 -66 56 9 132 51 160 89 21 28
239 403 283 486 27 51 25 162 -3 215 -60 112 -189 162 -310 119z"/>
<path d="M10090 4130 c-56 -26 -96 -63 -122 -114 -26 -50 -34 -133 -18 -181
24 -71 288 -518 327 -553 35 -31 114 -62 158 -62 50 0 128 33 170 71 58 54 78
108 73 196 -3 67 -6 73 -145 313 -78 135 -156 259 -173 276 -67 70 -185 93
-270 54z"/>
<path d="M6390 3644 c-44 -19 -96 -69 -120 -114 -10 -19 -50 -157 -90 -305
-78 -293 -81 -324 -41 -402 25 -49 76 -98 123 -117 47 -20 145 -20 191 -1 52
22 108 74 128 120 36 83 153 539 152 596 0 101 -70 200 -162 227 -53 16 -139
14 -181 -4z"/>
<path d="M8921 3646 c-89 -32 -154 -127 -154 -225 -1 -57 116 -513 152 -596
20 -46 76 -98 128 -120 46 -19 144 -19 191 1 47 19 98 68 123 117 40 78 37
109 -41 402 -40 148 -80 286 -90 305 -24 46 -76 95 -122 114 -44 19 -139 20
-187 2z"/>
<path d="M7677 3486 c-67 -25 -111 -61 -142 -117 l-30 -54 0 -315 0 -315 31
-55 c50 -89 156 -142 253 -125 68 11 140 63 175 125 l31 55 3 292 c3 313 0
340 -46 413 -53 84 -185 130 -275 96z"/>
</g>
</svg>
